<svg width="17.000000" height="18.000000" viewBox="0 0 17 18" fill="none" xmlns="http://www.w3.org/2000/svg" xmlns:xlink="http://www.w3.org/1999/xlink">
	<desc>
			Created with Pixso.
	</desc>
	<defs>
		<clipPath id="clip2_403">
			<rect id="IMAGE" rx="0.000000" width="16.000000" height="17.000000" transform="translate(0.500000 0.500000)" fill="white" fill-opacity="0"/>
		</clipPath>
	</defs>
	<g clip-path="url(#clip2_403)">
		<path id="Vector" d="M8.5 4.77C6.12 4.77 4.23 6.7 4.23 9.04C4.23 11.42 6.12 13.31 8.5 13.31C10.83 13.31 12.76 11.42 12.76 9.04C12.76 6.7 10.83 4.77 8.5 4.77ZM8.5 11.83C6.97 11.83 5.71 10.6 5.71 9.04C5.71 7.52 6.94 6.3 8.5 6.3C10.02 6.3 11.24 7.52 11.24 9.04C11.24 10.6 10.02 11.83 8.5 11.83ZM13.91 4.63C13.91 4.07 13.47 3.62 12.91 3.62C12.35 3.62 11.91 4.07 11.91 4.63C11.91 5.18 12.35 5.63 12.91 5.63C13.47 5.63 13.91 5.18 13.91 4.63ZM16.73 5.63C16.66 4.29 16.36 3.1 15.4 2.14C14.43 1.17 13.25 0.88 11.91 0.8C10.54 0.73 6.42 0.73 5.04 0.8C3.71 0.88 2.56 1.17 1.56 2.14C0.59 3.1 0.29 4.29 0.22 5.63C0.15 7 0.15 11.12 0.22 12.49C0.29 13.83 0.59 14.98 1.56 15.98C2.56 16.95 3.71 17.24 5.04 17.32C6.42 17.39 10.54 17.39 11.91 17.32C13.25 17.24 14.43 16.95 15.4 15.98C16.36 14.98 16.66 13.83 16.73 12.49C16.81 11.12 16.81 7 16.73 5.63ZM14.95 13.94C14.69 14.68 14.1 15.24 13.39 15.54C12.28 15.98 9.68 15.87 8.5 15.87C7.27 15.87 4.67 15.98 3.6 15.54C2.85 15.24 2.3 14.68 2 13.94C1.56 12.86 1.67 10.27 1.67 9.04C1.67 7.85 1.56 5.26 2 4.14C2.3 3.44 2.85 2.88 3.6 2.58C4.67 2.14 7.27 2.25 8.5 2.25C9.68 2.25 12.28 2.14 13.39 2.58C14.1 2.84 14.66 3.44 14.95 4.14C15.4 5.26 15.29 7.85 15.29 9.04C15.29 10.27 15.4 12.86 14.95 13.94Z" fill="#292F36" fill-opacity="1.000000" fill-rule="nonzero"/>
	</g>
</svg>
